<?xml version="1.0" encoding="UTF-8" standalone="no"?>
<svg
   xmlns:dc="http://purl.org/dc/elements/1.1/"
   xmlns:cc="http://creativecommons.org/ns#"
   xmlns:rdf="http://www.w3.org/1999/02/22-rdf-syntax-ns#"
   xmlns:svg="http://www.w3.org/2000/svg"
   xmlns="http://www.w3.org/2000/svg"
   xmlns:sodipodi="http://sodipodi.sourceforge.net/DTD/sodipodi-0.dtd"
   xmlns:inkscape="http://www.inkscape.org/namespaces/inkscape"
   width="500"
   height="500"
   version="1.1"
   viewBox="0 0 132.29166 132.29167"
   id="svg42"
   sodipodi:docname="frame.svg"
   inkscape:export-filename="C:\Users\etienneg\boussole-magique\images\frame.png"
   inkscape:export-xdpi="96"
   inkscape:export-ydpi="96"
   inkscape:version="0.92.1 r15371">
  <defs
     id="defs46" />
  <sodipodi:namedview
     pagecolor="#ffffff"
     bordercolor="#666666"
     borderopacity="1"
     objecttolerance="10"
     gridtolerance="10"
     guidetolerance="10"
     inkscape:pageopacity="0"
     inkscape:pageshadow="2"
     inkscape:window-width="716"
     inkscape:window-height="844"
     id="namedview44"
     showgrid="false"
     inkscape:zoom="0.472"
     inkscape:cx="250"
     inkscape:cy="250"
     inkscape:window-x="0"
     inkscape:window-y="40"
     inkscape:window-maximized="0"
     inkscape:current-layer="svg42" />
  <metadata
     id="metadata2">
    <rdf:RDF>
      <cc:Work
         rdf:about="">
        <dc:format>image/svg+xml</dc:format>
        <dc:type
           rdf:resource="http://purl.org/dc/dcmitype/StillImage" />
        <dc:title />
      </cc:Work>
    </rdf:RDF>
  </metadata>
  <g
     transform="translate(0 -164.71)"
     id="g40">
    <circle
       cx="66.146"
       cy="230.85"
       r="66.146"
       fill="#b29474"
       id="circle4" />
    <circle
       cx="66.146"
       cy="230.85"
       r="55.563"
       fill="#f7f7f7"
       id="circle6" />
    <path
       d="m63.5 177.94v7.9375h5.2917v-7.9375z"
       fill="#b6b6b6"
       id="path8" />
    <g
       fill="#6a6a6a"
       id="g18">
      <path
         d="m119.06 228.21h-7.9375v5.2917h7.9375z"
         id="path10" />
      <path
         d="m63.5 177.94v7.9375h5.2917v-7.9375z"
         id="path12" />
      <path
         d="m13.229 233.5h7.9375v-5.2917h-7.9375z"
         id="path14" />
      <path
         d="m68.792 283.77v-7.9375h-5.2917v7.9375z"
         id="path16" />
    </g>
    <g
       fill="#e3e3e3"
       id="g36">
      <path
         d="m113.99 255.82-6.8741-3.9688-2.6458 4.5827 6.8741 3.9688z"
         id="path20" />
      <path
         d="m91.011 184.5-3.9688 6.8741 4.5827 2.6458 3.9688-6.8741z"
         id="path22" />
      <path
         d="m19.694 207.48 6.8741 3.9688 2.6458-4.5827-6.8741-3.9688z"
         id="path24" />
      <path
         d="m42.677 278.8 3.9688-6.8741-4.5827-2.6458-3.9688 6.8741z"
         id="path26" />
      <path
         d="m95.802 277.19-3.9688-6.8741-4.5827 2.6458 3.9688 6.8741z"
         id="path28" />
      <path
         d="m111.56 203.94-6.8741 3.9688 2.6458 4.5827 6.8741-3.9687z"
         id="path30" />
      <path
         d="m38.302 188.18 3.9687 6.8741 4.5827-2.6458-3.9687-6.8741z"
         id="path32" />
      <path
         d="m22.548 261.44 6.8741-3.9688-2.6458-4.5827-6.8741 3.9687z"
         id="path34" />
    </g>
    <circle
       cx="66.146"
       cy="230.85"
       r="7.9375"
       fill="#6a6a6a"
       id="circle38" />
  </g>
</svg>
