<?xml version="1.0" encoding="UTF-8"?>
<svg width="500" height="500" version="1.1" viewBox="0 0 132.29166 132.29167" xmlns="http://www.w3.org/2000/svg" xmlns:cc="http://creativecommons.org/ns#" xmlns:dc="http://purl.org/dc/elements/1.1/" xmlns:rdf="http://www.w3.org/1999/02/22-rdf-syntax-ns#">
 <metadata>
  <rdf:RDF>
   <cc:Work rdf:about="">
    <dc:format>image/svg+xml</dc:format>
    <dc:type rdf:resource="http://purl.org/dc/dcmitype/StillImage"/>
    <dc:title/>
   </cc:Work>
  </rdf:RDF>
 </metadata>
 <g transform="translate(0 -164.71)">
  <circle cx="66.146" cy="230.85" r="66.146" fill="#b29474"/>
  <circle cx="66.146" cy="230.85" r="55.563" fill="#f7f7f7"/>
  <path d="m63.5 177.94v7.9375h5.2917v-7.9375z" fill="#b6b6b6"/>
  <g fill="#6a6a6a">
   <path d="m119.06 228.21h-7.9375v5.2917h7.9375z"/>
   <path d="m63.5 177.94v7.9375h5.2917v-7.9375z"/>
   <path d="m13.229 233.5h7.9375v-5.2917h-7.9375z"/>
   <path d="m68.792 283.77v-7.9375h-5.2917v7.9375z"/>
  </g>
  <g fill="#e3e3e3">
   <path d="m113.99 255.82-6.8741-3.9688-2.6458 4.5827 6.8741 3.9688z"/>
   <path d="m91.011 184.5-3.9688 6.8741 4.5827 2.6458 3.9688-6.8741z"/>
   <path d="m19.694 207.48 6.8741 3.9688 2.6458-4.5827-6.8741-3.9688z"/>
   <path d="m42.677 278.8 3.9688-6.8741-4.5827-2.6458-3.9688 6.8741z"/>
   <path d="m95.802 277.19-3.9688-6.8741-4.5827 2.6458 3.9688 6.8741z"/>
   <path d="m111.56 203.94-6.8741 3.9688 2.6458 4.5827 6.8741-3.9687z"/>
   <path d="m38.302 188.18 3.9687 6.8741 4.5827-2.6458-3.9687-6.8741z"/>
   <path d="m22.548 261.44 6.8741-3.9688-2.6458-4.5827-6.8741 3.9687z"/>
  </g>
  <circle cx="66.146" cy="230.85" r="7.9375" fill="#6a6a6a"/>
 </g>
</svg>
